<?xml version="1.0" encoding="UTF-8"?>
<svg width="147px" height="279px" viewBox="0 0 147 279" version="1.1" xmlns="http://www.w3.org/2000/svg" xmlns:xlink="http://www.w3.org/1999/xlink">
    <title>ico-thunderbolt</title>
    <g id="Page-1" stroke="none" stroke-width="1" fill="none" fill-rule="evenodd">
        <g id="Artboard" transform="translate(-165.000000, -98.000000)" fill="#FF7705" fill-rule="nonzero">
            <path d="M310.938654,102.143061 C309.487194,99.5802809 306.77537,98 303.832706,98 L205.834649,98 C202.086223,98 198.824521,100.554606 197.915317,104.194156 L165.249298,235.520947 C164.635177,237.963298 165.185599,240.550055 166.73288,242.52922 C168.28016,244.51656 170.656613,245.673979 173.16863,245.673979 L210.38067,245.673979 L165.520971,365.953517 C164.085299,369.784881 165.704445,374.087604 169.300973,376.02699 C172.913835,377.964741 177.383635,376.92775 179.772066,373.632047 L310.436142,193.262056 C312.246384,190.779381 312.501723,187.490762 311.113962,184.744887 C309.718579,182.007187 306.903312,180.283046 303.832706,180.283046 L269.260625,180.283046 L310.834668,110.380138 C312.350371,107.850054 312.390115,104.705295 310.938654,102.143061 L310.938654,102.143061 Z" id="ico-thunderbolt"></path>
        </g>
    </g>
</svg>