<?xml version="1.0" encoding="utf-8"?>
<!-- Generator: Adobe Illustrator 15.0.2, SVG Export Plug-In . SVG Version: 6.00 Build 0)  -->
<!DOCTYPE svg PUBLIC "-//W3C//DTD SVG 1.1//EN" "http://www.w3.org/Graphics/SVG/1.1/DTD/svg11.dtd">
<svg version="1.1" id="Capa_1" xmlns="http://www.w3.org/2000/svg" xmlns:xlink="http://www.w3.org/1999/xlink" x="0px" y="0px"
	 width="150px" height="50px" viewBox="0 0 150 50" enable-background="new 0 0 150 50" xml:space="preserve">
<linearGradient id="text_1_" gradientUnits="userSpaceOnUse" x1="92.4521" y1="34.1775" x2="92.4521" y2="15.6936">
	<stop  offset="0" style="stop-color:#E9E8E9"/>
	<stop  offset="1" style="stop-color:#F2F2F2"/>
</linearGradient>
<path id="text_2_" fill="url(#text_1_)" d="M42.504,33.976V15.693h2.622l5.246,11.922l5.132-11.922h2.623v18.283h-2.773V22.57h-0.05
	l-3.827,8.796h-2.31L45.34,22.57h-0.063v11.407H42.504z M69.94,34.027v-1.154H69.89c-0.242,0.45-0.606,0.777-1.092,0.978
	c-0.519,0.218-1.196,0.327-2.033,0.327c-1.438-0.034-2.526-0.418-3.263-1.154c-0.803-0.736-1.204-1.677-1.204-2.824
	c0-1.087,0.348-1.999,1.042-2.734c0.694-0.736,1.719-1.113,3.074-1.13h3.526v-1.381c0.008-1.154-0.857-1.715-2.599-1.682
	c-0.602,0-1.104,0.067-1.505,0.201c-0.394,0.176-0.69,0.447-0.892,0.815l-2.008-1.581c0.971-1.297,2.397-1.928,4.279-1.895
	c1.581-0.016,2.853,0.293,3.815,0.929c0.945,0.661,1.426,1.781,1.442,3.363v8.922H69.94z M69.94,29.446v-0.953h-3.05
	c-1.489,0.042-2.226,0.569-2.209,1.581c0,0.435,0.193,0.812,0.577,1.129c0.368,0.344,0.975,0.515,1.82,0.515
	c1.07,0.017,1.823-0.112,2.259-0.389C69.739,31.053,69.94,30.426,69.94,29.446z M76.672,30.827V15.693h2.622v14.92
	c0,0.603,0.326,0.903,0.979,0.903h0.892v2.46H80.01c-0.954,0-1.749-0.231-2.384-0.696C76.989,32.815,76.672,31.999,76.672,30.827z
	 M91.484,34.027v-1.154h-0.05c-0.243,0.45-0.607,0.777-1.092,0.978c-0.519,0.218-1.197,0.327-2.033,0.327
	c-1.439-0.034-2.526-0.418-3.263-1.154c-0.804-0.736-1.204-1.677-1.204-2.824c0-1.087,0.347-1.999,1.04-2.734
	c0.695-0.736,1.72-1.113,3.075-1.13h3.526v-1.381c0.008-1.154-0.857-1.715-2.599-1.682c-0.602,0-1.104,0.067-1.505,0.201
	c-0.394,0.176-0.689,0.447-0.892,0.815l-2.007-1.581c0.97-1.297,2.396-1.928,4.278-1.895c1.582-0.016,2.853,0.293,3.814,0.929
	c0.945,0.661,1.428,1.781,1.443,3.363v8.922H91.484z M91.484,29.446v-0.953h-3.05c-1.489,0.042-2.226,0.569-2.208,1.581
	c0,0.435,0.191,0.812,0.577,1.129c0.368,0.344,0.975,0.515,1.819,0.515c1.07,0.017,1.823-0.112,2.259-0.389
	C91.283,31.053,91.484,30.426,91.484,29.446z M101.14,33.976l-4.77-13.025h2.773l3.05,9.123h0.05l3.063-9.123h2.772l-4.781,13.025
	H101.14z M110.982,18.316v-2.623h2.622v2.623H110.982z M110.982,33.976V20.951h2.622v13.025H110.982z M126.134,33.976v-1.355
	c-0.912,1.004-2.033,1.506-3.363,1.506c-0.803,0-1.493-0.156-2.07-0.47c-0.577-0.314-1.05-0.718-1.418-1.211
	c-0.369-0.46-0.615-1.007-0.74-1.638c-0.126-0.632-0.188-1.751-0.188-3.356c0-1.591,0.063-2.696,0.188-3.32
	c0.125-0.622,0.371-1.169,0.74-1.637c0.368-0.485,0.841-0.889,1.418-1.211s1.268-0.483,2.07-0.483c0.67,0,1.275,0.142,1.819,0.427
	c0.545,0.285,1.058,0.657,1.544,1.117v-6.651h2.622v18.283H126.134z M123.574,23.424c-1.238,0-1.981,0.422-2.229,1.267
	c-0.246,0.846-0.37,1.765-0.37,2.762c0,1.021,0.124,1.952,0.37,2.798c0.247,0.845,0.99,1.267,2.229,1.267
	c1.212,0,1.942-0.438,2.189-1.317c0.247-0.878,0.37-1.794,0.37-2.747c0-0.929-0.123-1.833-0.37-2.711
	C125.517,23.862,124.786,23.424,123.574,23.424z M139.867,34.027v-1.154h-0.05c-0.243,0.45-0.607,0.777-1.092,0.978
	c-0.519,0.218-1.197,0.327-2.034,0.327c-1.438-0.034-2.525-0.418-3.262-1.154c-0.804-0.736-1.205-1.677-1.205-2.824
	c0-1.087,0.348-1.999,1.041-2.734c0.695-0.736,1.72-1.113,3.075-1.13h3.526v-1.381c0.008-1.154-0.857-1.715-2.598-1.682
	c-0.603,0-1.104,0.067-1.506,0.201c-0.394,0.176-0.689,0.447-0.892,0.815l-2.007-1.581c0.97-1.297,2.396-1.928,4.278-1.895
	c1.582-0.016,2.853,0.293,3.815,0.929c0.944,0.661,1.427,1.781,1.442,3.363v8.922H139.867z M139.867,29.446v-0.953h-3.049
	c-1.49,0.042-2.227,0.569-2.209,1.581c0,0.435,0.191,0.812,0.577,1.129c0.368,0.344,0.975,0.515,1.819,0.515
	c1.071,0.017,1.823-0.112,2.259-0.389C139.666,31.053,139.867,30.426,139.867,29.446z"/>
<g id="logo">
	
		<linearGradient id="SVGID_1_" gradientUnits="userSpaceOnUse" x1="365.4951" y1="248.4919" x2="365.4951" y2="268.8699" gradientTransform="matrix(1 0 0 -1 -345.0195 284.519)">
		<stop  offset="0.17" style="stop-color:#F29526"/>
		<stop  offset="0.9" style="stop-color:#E43A26"/>
	</linearGradient>
	<path fill="url(#SVGID_1_)" d="M10.854,30.653V15.649l9.622,5.374l9.62-5.374v15.004l-9.62,5.374L10.854,30.653z"/>
	
		<linearGradient id="SVGID_2_" gradientUnits="userSpaceOnUse" x1="365.4961" y1="253.864" x2="365.4961" y2="275.1609" gradientTransform="matrix(1 0 0 -1 -345.0195 284.519)">
		<stop  offset="0" style="stop-color:#B2B3B7"/>
		<stop  offset="0.07" style="stop-color:#BCBDC0"/>
		<stop  offset="0.269" style="stop-color:#D4D4D6"/>
		<stop  offset="0.481" style="stop-color:#E5E5E6"/>
		<stop  offset="0.712" style="stop-color:#EFEFEF"/>
		<stop  offset="1" style="stop-color:#F2F2F2"/>
	</linearGradient>
	<path fill="url(#SVGID_2_)" d="M21.338,15.844c-0.476,0.268-1.25,0.268-1.727,0L8.339,9.472C7.864,9.201,7.476,9.43,7.476,9.975
		v18.047c0,0.547,0.4,1.188,0.89,1.426l2.49,1.207V16.647c0-0.546,0.39-0.774,0.865-0.51l8.755,4.885l8.755-4.884
		c0.476-0.266,0.866-0.036,0.866,0.51v14.006l2.49-1.206c0.487-0.236,0.89-0.88,0.89-1.426V9.975c0-0.545-0.39-0.772-0.863-0.503
		L21.338,15.844L21.338,15.844z"/>
	
		<linearGradient id="SVGID_3_" gradientUnits="userSpaceOnUse" x1="365.4951" y1="253.865" x2="365.4951" y2="243.8777" gradientTransform="matrix(1 0 0 -1 -345.0195 284.519)">
		<stop  offset="0" style="stop-color:#B2B3B7"/>
		<stop  offset="0.07" style="stop-color:#BCBDC0"/>
		<stop  offset="0.269" style="stop-color:#D4D4D6"/>
		<stop  offset="0.481" style="stop-color:#E5E5E6"/>
		<stop  offset="0.712" style="stop-color:#EFEFEF"/>
		<stop  offset="1" style="stop-color:#F2F2F2"/>
	</linearGradient>
	<path fill="url(#SVGID_3_)" d="M21.332,40.443c-0.477,0.266-1.255,0.264-1.729,0l-7.884-4.408c-0.477-0.267-0.866-0.93-0.867-1.477
		v-3.904l8.75,4.896c0.477,0.267,1.256,0.267,1.731,0l8.761-4.895L30.1,34.56c0,0.548-0.387,1.21-0.863,1.477l-7.903,4.41
		L21.332,40.443z"/>
</g>
</svg>
